<svg width="14" height="16" viewBox="0 0 14 16" fill="none" xmlns="http://www.w3.org/2000/svg">
<path fill-rule="evenodd" clip-rule="evenodd" d="M11.2772 16C12.7786 16 14 14.7545 14 13.2234V4.92308C14 4.65231 13.7828 4.43077 13.5172 4.43077H10.6207V3.69231C10.6207 1.65662 8.99621 0 7 0C5.00379 0 3.37931 1.65662 3.37931 3.69231V4.43077H0.482759C0.217241 4.43077 0 4.65231 0 4.92308V13.2234C0 14.7545 1.22138 16 2.72276 16H11.2772ZM4.34483 3.69231C4.34483 2.19815 5.53483 0.984615 7 0.984615C8.46517 0.984615 9.65517 2.19815 9.65517 3.69231V4.43077H4.34483V3.69231ZM3.37931 5.41538H0.965517V13.2234C0.965517 14.2105 1.75483 15.0154 2.72276 15.0154H11.2772C12.2452 15.0154 13.0345 14.2105 13.0345 13.2234V5.41538H10.6207V6.64615C10.6207 6.91692 10.4034 7.13846 10.1379 7.13846C9.87241 7.13846 9.65517 6.91692 9.65517 6.64615V5.41538H4.34483V6.64615C4.34483 6.91692 4.12759 7.13846 3.86207 7.13846C3.59655 7.13846 3.37931 6.91692 3.37931 6.64615V5.41538Z" fill="#8391CA"/>
</svg>
