<svg width="18" height="18" viewBox="0 0 18 18" fill="none" xmlns="http://www.w3.org/2000/svg">
<path fill-rule="evenodd" clip-rule="evenodd" d="M9 0C4.02823 0 0 4.02823 0 9C0 13.9718 4.02823 18 9 18C13.9718 18 18 13.9718 18 9C18 4.02823 13.9718 0 9 0ZM16.8387 9C16.8387 13.3077 13.3512 16.8387 9 16.8387C4.69234 16.8387 1.16129 13.3512 1.16129 9C1.16129 4.69234 4.64879 1.16129 9 1.16129C13.3077 1.16129 16.8387 4.64879 16.8387 9ZM8.48831 10.0633L11.4351 12.2044C11.631 12.346 11.9032 12.3024 12.0448 12.1101L12.3423 11.7C12.4839 11.504 12.444 11.2319 12.248 11.0903L9.68952 9.22863V3.91935C9.68952 3.67984 9.49355 3.48387 9.25403 3.48387H8.74597C8.50645 3.48387 8.31048 3.67984 8.31048 3.91935V9.71129C8.31048 9.84919 8.37581 9.97984 8.48831 10.0633Z" fill="#8391CA"/>
</svg>
