<svg width="19" height="18" viewBox="0 0 19 18" fill="none" xmlns="http://www.w3.org/2000/svg">
<path fill-rule="evenodd" clip-rule="evenodd" d="M12.8383 5.28026L18.0269 6.029C18.9574 6.16257 19.3303 7.29798 18.6555 7.94829L14.9017 11.5689L15.7895 16.6835C15.9493 17.608 14.9656 18.297 14.1417 17.8682L9.5 15.4532L4.85833 17.8682C4.0344 18.3005 3.05067 17.608 3.21048 16.6835L4.09833 11.5689L0.344502 7.94829C-0.330263 7.29798 0.0426336 6.16257 0.973099 6.029L6.16169 5.28026L8.48075 0.626149C8.89981 -0.213981 10.1037 -0.203435 10.5193 0.626149L12.8383 5.28026ZM14.6708 16.8698L13.6835 11.1752L17.8635 7.1398L12.0854 6.31021L9.5 1.12531L6.91458 6.31021L1.13646 7.1398L5.32001 11.1788L4.33272 16.8734L9.5 14.1842L14.6708 16.8698Z" fill="#C9CBD6"/>
</svg>
