<svg width="23" height="13" viewBox="0 0 23 13" fill="none" xmlns="http://www.w3.org/2000/svg">
<path fill-rule="evenodd" clip-rule="evenodd" d="M17.2393 1.47243C19.0535 2.40463 20.6736 3.76977 21.9243 5.42018C22.4062 6.05596 22.4062 6.94395 21.9243 7.57982C20.6736 9.23027 19.0535 10.5954 17.2393 11.5276C15.3873 12.4792 13.3949 12.9729 11.3151 12.9988C11.2578 13.0004 11.0278 13.0004 10.9706 12.9988C8.89073 12.9729 6.89838 12.4792 5.04641 11.5276C3.23218 10.5954 1.61212 9.23023 0.36138 7.57982C-0.12046 6.94404 -0.12046 6.05596 0.36138 5.42018C1.61216 3.76973 3.23218 2.40463 5.04641 1.47243C6.89838 0.520839 8.89077 0.0271461 10.9706 0.00120948C11.0278 -0.00040316 11.2578 -0.00040316 11.3151 0.00120948C13.3949 0.0271013 15.3873 0.520839 17.2393 1.47243ZM1.07626 7.00599C2.24447 8.54745 3.75737 9.82233 5.45143 10.6928C5.93261 10.94 6.42407 11.1539 6.9245 11.3349C5.63694 10.1439 4.82577 8.41768 4.82577 6.49998C4.82577 4.58237 5.63689 2.8563 6.92432 1.66528C6.4239 1.84625 5.93257 2.06002 5.45143 2.3072C3.75733 3.17767 2.24443 4.45255 1.07626 5.99401C0.850488 6.29195 0.850488 6.70805 1.07626 7.00599ZM11.1429 12.0682C8.15948 12.0682 5.73235 9.57031 5.73235 6.49993C5.73235 3.42955 8.15948 0.931704 11.1429 0.931704C14.1263 0.931704 16.5534 3.4296 16.5534 6.49998C16.5534 9.57036 14.1263 12.0682 11.1429 12.0682ZM16.8343 10.6928C18.5284 9.82229 20.0413 8.54741 21.2095 7.00594C21.4353 6.70801 21.4353 6.2919 21.2095 5.99392C20.0413 4.45246 18.5284 3.17758 16.8344 2.30711C16.3531 2.05979 15.8616 1.84576 15.361 1.66474C16.6486 2.85576 17.46 4.58205 17.46 6.49993C17.46 8.41678 16.6495 10.1423 15.3629 11.3333C15.8627 11.1525 16.3538 10.9397 16.8343 10.6928Z" fill="white"/>
<path fill-rule="evenodd" clip-rule="evenodd" d="M8.82739 6.49997C8.82739 5.18602 9.86607 4.11707 11.1428 4.11707C12.4196 4.11707 13.4582 5.18602 13.4582 6.49997C13.4582 7.81391 12.4195 8.88287 11.1428 8.88287C9.86607 8.88287 8.82739 7.81391 8.82739 6.49997ZM9.73392 6.49997C9.73392 7.29952 10.366 7.94991 11.1428 7.94991C11.9196 7.94991 12.5517 7.29952 12.5516 6.49997C12.5516 5.70046 11.9196 5.05007 11.1428 5.05007C10.3659 5.05007 9.73392 5.70046 9.73392 6.49997Z" fill="white"/>
</svg>
