<svg
                width="25"
                height="16"
                viewBox="0 0 25 16"
                fill="none"
                xmlns="http://www.w3.org/2000/svg"
              >
                <path
                  d="M12.6283 14.2131C10.7696 13.7487 8.40377 12.3808 6.34807 9.98136C9.70968 12.4274 11.6309 13.6439 15.9169 13.9273C13.8853 13.5089 11.2992 12.4072 10.0995 9.59647C9.05244 7.14126 8.57852 5.119 8.08154 3.57005C7.92472 4.2689 7.50321 4.94425 6.60172 5.45602C6.60172 5.45602 7.00449 5.11899 7.3069 4.35318C7.72764 3.28791 7.53057 2.08762 6.79027 1.19957C6.049 0.311122 4.87507 -0.133349 3.70541 0.0352142C3.70464 0.0356101 3.70284 0.0356101 3.7011 0.0360555C-0.30389 0.616724 -2.10846 7.84343 3.76295 13.2626C7.36435 16.479 11.9256 16.2882 15.0652 15.5451C18.7807 15.9462 22.4687 14.679 25 11.3464C24.1225 12.0652 19.7815 15.9999 12.6283 14.2131Z"
                  fill="#77C5F3"
                />
              </svg>