<svg width="16" height="13" viewBox="0 0 16 13" fill="none" xmlns="http://www.w3.org/2000/svg">
<path fill-rule="evenodd" clip-rule="evenodd" d="M6.83232 12.688C7.15093 12.892 7.52153 13.0003 7.9 13C8.27862 12.9999 8.64923 12.8911 8.96768 12.6866C9.87229 12.1063 11.6099 10.9153 13.0804 9.46119C14.8849 7.67589 15.8 5.9946 15.8 4.46208C15.8 3.39718 15.4847 2.42148 14.8882 1.64078C13.7238 0.112883 11.6636 -0.42057 9.90266 0.349833C9.13688 0.678076 8.4539 1.23454 7.9 1.9748C7.3461 1.23634 6.66312 0.679882 5.89734 0.349833C4.13636 -0.42057 2.07621 0.112883 0.911844 1.64078C0.315277 2.42148 0 3.39718 0 4.46208C0 5.9946 0.915098 7.67662 2.71962 9.46263C4.19007 10.9168 5.92843 12.1077 6.83232 12.688ZM3.37115 1.01715C3.6472 0.942596 3.93194 0.904953 4.21791 0.90521C5.31994 0.90521 6.59117 1.45553 7.5088 3.02055C7.5898 3.15881 7.73816 3.24378 7.89855 3.24378C8.05895 3.24378 8.2073 3.15881 8.28831 3.02055C9.45614 1.03232 11.192 0.682048 12.4274 1.01715C13.1203 1.20714 13.7318 1.61859 14.1683 2.18857C14.6434 2.81183 14.8947 3.59687 14.8947 4.46352C14.8947 5.74616 14.07 7.21224 12.443 8.82131C11.0314 10.2159 9.35273 11.3656 8.47777 11.9268C8.12502 12.1519 7.67353 12.1519 7.32079 11.9268C6.44582 11.3671 4.76567 10.2173 3.3556 8.82131C1.7286 7.21224 0.90389 5.74616 0.90389 4.46352C0.90389 3.59687 1.15517 2.81039 1.63026 2.18857C2.0668 1.61859 2.67828 1.20714 3.37115 1.01715Z" fill="white"/>
</svg>
