<svg width="18" height="15" viewBox="0 0 18 15" fill="none" xmlns="http://www.w3.org/2000/svg">
<path fill-rule="evenodd" clip-rule="evenodd" d="M7.78366 14.64C8.14663 14.8754 8.56883 15.0004 9 15C9.43134 14.9999 9.85355 14.8743 10.2163 14.6383C11.2469 13.9688 13.2265 12.5946 14.9017 10.9168C16.9575 8.8568 18 6.91684 18 5.14855C18 3.91983 17.6408 2.79402 16.9612 1.8932C15.6347 0.13025 13.2877 -0.485273 11.2815 0.403654C10.4091 0.782396 9.63103 1.42446 9 2.27861C8.36897 1.42655 7.59089 0.784479 6.71849 0.403654C4.71231 -0.485273 2.36531 0.13025 1.03881 1.8932C0.359176 2.79402 0 3.91983 0 5.14855C0 6.91684 1.04252 8.85763 3.09831 10.9184C4.7735 12.5963 6.75391 13.9704 7.78366 14.64ZM3.82158 1.13005C4.13728 1.04343 4.46291 0.999703 4.78995 1C6.05024 1 7.50403 1.63932 8.55344 3.45742C8.64608 3.61804 8.81575 3.71675 8.99917 3.71675C9.1826 3.71675 9.35226 3.61804 9.4449 3.45742C10.7804 1.14766 12.7656 0.740752 14.1784 1.13005C14.9708 1.35075 15.6701 1.82874 16.1693 2.4909C16.7126 3.21495 17 4.12694 17 5.13373C17 6.62379 16.0569 8.32695 14.1962 10.1962C12.582 11.8163 10.6622 13.152 9.66157 13.8039C9.25817 14.0654 8.74183 14.0654 8.33843 13.8039C7.33781 13.1537 5.41637 11.818 3.8038 10.1962C1.94315 8.32695 1 6.62379 1 5.13373C1 4.12694 1.28737 3.21327 1.83068 2.4909C2.32991 1.82874 3.02921 1.35075 3.82158 1.13005Z" fill="#8391CA"/>
</svg>
