<svg width="18" height="18" viewBox="0 0 18 18" fill="none" xmlns="http://www.w3.org/2000/svg">
<path fill-rule="evenodd" clip-rule="evenodd" d="M11.908 1.52771L11.9079 1.52766C11.1599 0.895558 10.1001 0 9 0C7.90346 0 6.85485 0.884576 6.09296 1.52729C5.95923 1.64009 5.83434 1.74545 5.71957 1.83727C4.50366 2.80248 1.86908 4.92743 0.618504 5.95107C0.226973 6.27156 -5.55332e-05 6.75084 1.01893e-08 7.25681V16.3125C1.01893e-08 17.2445 0.755508 18 1.6875 18H16.3125C17.2445 18 18 17.2445 18 16.3125V7.25671C18.0001 6.75068 17.773 6.27134 17.3814 5.95086C16.1308 4.92739 13.4967 2.80248 12.2808 1.83727C12.1677 1.74719 12.0429 1.64174 11.908 1.52771ZM1.6875 16.875C1.37682 16.875 1.125 16.6232 1.125 16.3125V7.24785C1.125 7.07889 1.20076 6.91903 1.33165 6.81219C2.25563 6.05795 5.61298 3.35834 6.41918 2.71828C6.52496 2.63394 6.64558 2.53195 6.77704 2.42079L6.77706 2.42078C7.41551 1.88095 8.30957 1.125 9 1.125C9.69049 1.125 10.5845 1.8809 11.2229 2.42072C11.3544 2.5319 11.475 2.63392 11.5808 2.71828C12.387 3.35837 15.7446 6.05841 16.6684 6.81286C16.7992 6.91966 16.8751 7.07959 16.875 7.24845V16.3125C16.875 16.6232 16.6232 16.875 16.3125 16.875H1.6875ZM15.9423 9.8646C16.1241 9.71789 16.152 9.45155 16.0048 9.27028L15.8273 9.05189C15.6807 8.8715 15.4159 8.84359 15.235 8.98959C14.4348 9.63552 13.3011 10.5414 11.5809 11.9068C11.4814 11.9862 11.3654 12.0843 11.2376 12.1924C10.6046 12.7279 9.67911 13.5107 9 13.4999C8.32108 13.5109 7.39544 12.7279 6.7624 12.1924C6.63454 12.0842 6.51862 11.9862 6.41907 11.9068C4.69909 10.5415 3.56527 9.63562 2.765 8.98959C2.58416 8.84359 2.31926 8.8715 2.17269 9.05189L1.99526 9.27028C1.84795 9.45155 1.87597 9.71789 2.0577 9.8646C2.86024 10.5124 3.996 11.4197 5.71918 12.7876C5.82744 12.874 5.9482 12.9761 6.07963 13.0873C6.82284 13.7158 7.90713 14.6329 8.9999 14.625C10.0891 14.6327 11.1625 13.7266 11.9143 13.0919C12.047 12.9799 12.1696 12.8763 12.2806 12.7878C14.004 11.4198 15.1398 10.5124 15.9423 9.8646Z" fill="#8391CA"/>
</svg>
