<svg width="20" height="20" viewBox="0 0 20 20" fill="none" xmlns="http://www.w3.org/2000/svg">
<path fill-rule="evenodd" clip-rule="evenodd" d="M2.40139 4.82555C1.07547 4.82555 0 3.72732 0 2.40139C0 1.07514 1.07514 0 2.40139 0C3.72765 0 4.80279 1.07514 4.80279 2.40139C4.80279 3.72732 3.72687 4.82555 2.40139 4.82555ZM4.47689 20H0.330365V6.64702H4.47689V20ZM15.8584 20H19.996H20.0004V12.665C20.0004 9.07565 19.229 6.31219 15.0325 6.31219C13.015 6.31219 11.6628 7.41936 11.1092 8.46849H11.0511V6.64702H7.07427V20H11.2163V13.3882C11.2163 11.6471 11.5467 9.96406 13.7025 9.96406C15.8271 9.96406 15.8584 11.9507 15.8584 13.4999V20Z" fill="#8391CA"/>
</svg>
