<svg width="18" height="18" viewBox="0 0 18 18" fill="none" xmlns="http://www.w3.org/2000/svg">
<path fill-rule="evenodd" clip-rule="evenodd" d="M13.5247 10.7156L17.3354 12.3503C17.8231 12.5597 18.0911 13.0882 17.9717 13.6054L17.1564 17.1457C17.0425 17.6462 16.5971 18.001 16.0838 18C7.21765 18 7.57364e-06 10.821 7.57364e-06 1.91621C-0.00188682 1.4046 0.35179 0.960315 0.850797 0.847451L4.39458 0.0283027C4.91271 -0.0911925 5.44225 0.176531 5.65319 0.664637L7.28797 4.47913C7.47972 4.92882 7.35234 5.45108 6.97507 5.76199L5.08013 7.3124C6.27953 9.75103 8.25249 11.724 10.6911 12.9234L12.2415 11.0284C12.5526 10.6511 13.0749 10.5237 13.5247 10.7156ZM1.12853 1.94082C1.13557 10.1847 7.81883 16.8644 16.0627 16.875L16.8713 13.3734L13.0958 11.7562L11.004 14.3156C7.3618 12.607 5.38951 10.6277 3.68793 6.9995L6.24733 4.90768L4.63013 1.13222L1.12853 1.94082Z" fill="#8391CA"/>
</svg>
