<svg width="16" height="16" viewBox="0 0 16 16" fill="none" xmlns="http://www.w3.org/2000/svg">
<path fill-rule="evenodd" clip-rule="evenodd" d="M11.8588 11.0182L15.8898 15.0493C16.0367 15.1961 16.0367 15.4336 15.8898 15.5805L15.5805 15.8898C15.4336 16.0367 15.1961 16.0367 15.0493 15.8898L11.0182 11.8588C10.9495 11.7869 10.9088 11.6932 10.9088 11.5932V11.2744C9.74952 12.3431 8.20272 12.9994 6.49968 12.9994C2.90923 12.9994 0 10.0901 0 6.49968C0 2.90923 2.90923 0 6.49968 0C10.0901 0 12.9994 2.90923 12.9994 6.49968C12.9994 8.20272 12.3431 9.74952 11.2713 10.9088H11.5932C11.6932 10.9088 11.7869 10.9463 11.8588 11.0182ZM0.999951 6.49968C0.999951 9.54016 3.45921 11.9994 6.49968 11.9994C9.54016 11.9994 11.9994 9.54016 11.9994 6.49968C11.9994 3.45921 9.54016 0.999951 6.49968 0.999951C3.45921 0.999951 0.999951 3.45921 0.999951 6.49968Z" fill="#8391CA"/>
</svg>

