          <svg
            width="151"
            height="46"
            viewBox="0 0 151 46"
            fill="none"
            xmlns="http://www.w3.org/2000/svg"
          >
            <path
              d="M6.09402 41.67H16.534V45H1.95402V25.2H6.09402V41.67ZM36.2478 39.54C35.8678 40.82 35.2678 41.89 34.4478 42.75C33.6278 43.61 32.6578 44.25 31.5378 44.67C30.4178 45.09 29.1878 45.3 27.8478 45.3C25.8878 45.3 24.1878 44.89 22.7478 44.07C21.3278 43.25 20.2278 42.08 19.4478 40.56C18.6878 39.04 18.3078 37.22 18.3078 35.1C18.3078 32.98 18.6878 31.16 19.4478 29.64C20.2278 28.12 21.3278 26.95 22.7478 26.13C24.1878 25.31 25.8678 24.9 27.7878 24.9C29.1478 24.9 30.3778 25.09 31.4778 25.47C32.5778 25.83 33.5078 26.39 34.2678 27.15C35.0478 27.91 35.6178 28.87 35.9778 30.03L32.2278 31.62C31.8878 30.42 31.3678 29.57 30.6678 29.07C29.9678 28.55 29.0678 28.29 27.9678 28.29C26.8878 28.29 25.9378 28.55 25.1178 29.07C24.3178 29.59 23.6978 30.36 23.2578 31.38C22.8178 32.38 22.5978 33.62 22.5978 35.1C22.5978 36.56 22.7978 37.8 23.1978 38.82C23.6178 39.84 24.2278 40.61 25.0278 41.13C25.8278 41.65 26.8078 41.91 27.9678 41.91C29.0478 41.91 29.9778 41.62 30.7578 41.04C31.5578 40.46 32.1178 39.58 32.4378 38.4L36.2478 39.54ZM48.3263 24.9C50.2863 24.9 51.9763 25.31 53.3963 26.13C54.8163 26.95 55.9063 28.12 56.6663 29.64C57.4463 31.16 57.8363 32.98 57.8363 35.1C57.8363 37.22 57.4463 39.04 56.6663 40.56C55.9063 42.08 54.8163 43.25 53.3963 44.07C51.9763 44.89 50.2863 45.3 48.3263 45.3C46.3663 45.3 44.6663 44.89 43.2263 44.07C41.8063 43.25 40.7063 42.08 39.9263 40.56C39.1663 39.04 38.7863 37.22 38.7863 35.1C38.7863 32.98 39.1663 31.16 39.9263 29.64C40.7063 28.12 41.8063 26.95 43.2263 26.13C44.6663 25.31 46.3663 24.9 48.3263 24.9ZM48.3263 28.29C47.2063 28.29 46.2563 28.55 45.4763 29.07C44.6963 29.59 44.0963 30.36 43.6763 31.38C43.2763 32.38 43.0763 33.62 43.0763 35.1C43.0763 36.56 43.2763 37.8 43.6763 38.82C44.0963 39.84 44.6963 40.61 45.4763 41.13C46.2563 41.65 47.2063 41.91 48.3263 41.91C49.4263 41.91 50.3663 41.65 51.1463 41.13C51.9263 40.61 52.5163 39.84 52.9163 38.82C53.3363 37.8 53.5463 36.56 53.5463 35.1C53.5463 33.62 53.3363 32.38 52.9163 31.38C52.5163 30.36 51.9263 29.59 51.1463 29.07C50.3663 28.55 49.4263 28.29 48.3263 28.29ZM69.1254 24.9C70.9254 24.9 72.5054 25.21 73.8654 25.83C75.2254 26.45 76.3854 27.37 77.3454 28.59L75.0354 31.26C74.2154 30.22 73.3154 29.46 72.3354 28.98C71.3754 28.48 70.2554 28.23 68.9754 28.23C68.1354 28.23 67.4354 28.34 66.8754 28.56C66.3354 28.78 65.9354 29.07 65.6754 29.43C65.4354 29.79 65.3154 30.19 65.3154 30.63C65.3154 31.17 65.5254 31.63 65.9454 32.01C66.3654 32.37 67.0854 32.67 68.1054 32.91L71.7954 33.75C73.7554 34.19 75.1554 34.85 75.9954 35.73C76.8554 36.59 77.2854 37.71 77.2854 39.09C77.2854 40.39 76.9454 41.51 76.2654 42.45C75.5854 43.37 74.6354 44.08 73.4154 44.58C72.1954 45.06 70.7954 45.3 69.2154 45.3C67.8354 45.3 66.5654 45.14 65.4054 44.82C64.2654 44.48 63.2454 44.02 62.3454 43.44C61.4454 42.86 60.6954 42.19 60.0954 41.43L62.4354 38.64C62.8954 39.28 63.4654 39.85 64.1454 40.35C64.8254 40.85 65.5954 41.25 66.4554 41.55C67.3354 41.83 68.2554 41.97 69.2154 41.97C70.0354 41.97 70.7254 41.88 71.2854 41.7C71.8654 41.5 72.2954 41.23 72.5754 40.89C72.8754 40.53 73.0254 40.1 73.0254 39.6C73.0254 39.08 72.8454 38.64 72.4854 38.28C72.1454 37.9 71.5054 37.61 70.5654 37.41L66.5454 36.51C65.3854 36.23 64.3854 35.87 63.5454 35.43C62.7254 34.97 62.0954 34.39 61.6554 33.69C61.2354 32.97 61.0254 32.12 61.0254 31.14C61.0254 29.96 61.3454 28.9 61.9854 27.96C62.6254 27.02 63.5454 26.28 64.7454 25.74C65.9654 25.18 67.4254 24.9 69.1254 24.9ZM102.742 25.2V45H98.9921V34.68L99.2021 28.89H99.1421L93.6521 45H90.2621L84.8021 28.89H84.7421L84.9521 34.68V45H81.2021V25.2H87.2021L90.7721 36L92.0321 40.47H92.0921L93.3821 36.03L96.9221 25.2H102.742ZM107.892 45V25.2H122.742V28.53H112.032V33.45H120.462V36.63H112.032V41.67H123.162V45H107.892ZM142.536 25.2V28.53H135.906V45H131.766V28.53H125.106V25.2H142.536ZM150.059 25.2V45H145.919V25.2H150.059Z"
              fill="#151D3F"
            />
            <path
              d="M15.1068 20.6171C16.3817 18.6972 18.9228 16.5695 22.5618 15.2135C18.3575 18.0323 16.1692 19.717 14.1598 24.4648C15.448 22.3298 17.7604 19.8439 21.5511 19.6267C24.862 19.4378 27.4373 19.723 29.4621 19.7895C28.6974 19.3272 28.0639 18.5741 27.8112 17.343C27.8112 17.343 28.0522 17.9371 28.8392 18.5919C29.9338 19.5028 31.4295 19.7677 32.7683 19.2891C34.1079 18.8096 35.0919 17.6585 35.3496 16.2628C35.3494 16.2618 35.3501 16.2597 35.3503 16.2576C36.2287 11.4771 28.3925 6.48863 19.6938 10.9451C14.4852 13.7223 12.9288 18.9754 12.5804 22.84C10.6549 26.8924 10.7117 31.5927 13.6615 35.8209C13.1548 34.5328 10.2003 28.0061 15.1068 20.6171Z"
              fill="#7FC0E9"
            />
          </svg>